<svg xmlns="http://www.w3.org/2000/svg" viewBox="0 0 1760 190" width="1760" height="190" fill="none" shape-rendering="geometricPrecision">
  <defs>
    <filter id="barShadow" x="-4%" y="-45%" width="108%" height="190%" color-interpolation-filters="sRGB">
      <feDropShadow dx="0" dy="14" stdDeviation="13" flood-color="#281f14" flood-opacity="0.09"/>
      <feDropShadow dx="0" dy="1.5" stdDeviation="1.5" flood-color="#8d7e68" flood-opacity="0.24"/>
    </filter>
    <filter id="bubbleShadow" x="-45%" y="-45%" width="190%" height="210%" color-interpolation-filters="sRGB">
      <feDropShadow dx="0" dy="12" stdDeviation="12" flood-color="#281f14" flood-opacity="0.11"/>
      <feDropShadow dx="0" dy="1.5" stdDeviation="1.5" flood-color="#8d7e68" flood-opacity="0.20"/>
    </filter>
  </defs>
  <path d="M 86 70 L 956 70 C 970.08 70 973.92 128 1020 128 C 1066.08 128 1069.92 70 1084 70 L 1674 70 A 46 46 0 0 1 1720 116 L 1720 116 A 46 46 0 0 1 1674 162 L 86 162 A 46 46 0 0 1 40 116 L 40 116 A 46 46 0 0 1 86 70 Z" fill="#fffdf9" filter="url(#barShadow)"/>
  <path d="M 86 70 L 956 70 C 970.08 70 973.92 128 1020 128 C 1066.08 128 1069.92 70 1084 70 L 1674 70 A 46 46 0 0 1 1720 116 L 1720 116 A 46 46 0 0 1 1674 162 L 86 162 A 46 46 0 0 1 40 116 L 40 116 A 46 46 0 0 1 86 70 Z" stroke="rgba(80,72,60,.18)" stroke-width="1.4"/>
  <circle cx="1020" cy="68" r="48" fill="#fffdf9" stroke="rgba(80,72,60,.16)" stroke-width="1.4" filter="url(#bubbleShadow)"/>
  <g class="nav-copy">
      <g transform="translate(163 93) scale(1.4166666666666667)" fill="none" stroke="#464B54" stroke-width="2.25" vector-effect="non-scaling-stroke"><path d="M21 12a9 9 0 1 1-3.46-7.1M21 4v5h-5" stroke-linecap="round" stroke-linejoin="round"/></g>
      <text x="180" y="150" text-anchor="middle" font-family="Geist, Helvetica Neue, Arial, sans-serif" font-size="23" font-weight="700" fill="#464B54" letter-spacing="0">Modernizace</text>
    </g>
      <g class="nav-copy">
      <g transform="translate(443 93) scale(1.4166666666666667)" fill="none" stroke="#464B54" stroke-width="2.25" vector-effect="non-scaling-stroke"><rect x="4" y="5" width="16" height="14" rx="2"/><path d="M4 10h16M8 14h6M8 17h8" stroke-linecap="round"/></g>
      <text x="460" y="150" text-anchor="middle" font-family="Geist, Helvetica Neue, Arial, sans-serif" font-size="23" font-weight="700" fill="#464B54" letter-spacing="0">Nový web</text>
    </g>
      <g class="nav-copy">
      <g transform="translate(723 93) scale(1.4166666666666667)" fill="none" stroke="#464B54" stroke-width="2.25" vector-effect="non-scaling-stroke"><circle cx="10.8" cy="10.8" r="6.8"/><path d="M20 20l-4.2-4.2" stroke-linecap="round"/></g>
      <text x="740" y="150" text-anchor="middle" font-family="Geist, Helvetica Neue, Arial, sans-serif" font-size="23" font-weight="700" fill="#464B54" letter-spacing="0">SEO &amp; Google</text>
    </g>
      <g class="active-item">
        <g transform="translate(1003 51) scale(1.4166666666666667)" fill="none" stroke="#2570B3" stroke-width="2.6" vector-effect="non-scaling-stroke"><rect x="4" y="5" width="16" height="12" rx="2"/><path d="M9 21h6M12 17v4M8 9h5M8 13h8" stroke-linecap="round"/></g>
      </g>
      <g class="nav-copy">
      <g transform="translate(1283 93) scale(1.4166666666666667)" fill="none" stroke="#464B54" stroke-width="2.25" vector-effect="non-scaling-stroke"><path d="M6 7h11M6 12h9M6 17h7" stroke-linecap="round"/><path d="M16 16.5l1.7 1.7L21 14" stroke-linecap="round" stroke-linejoin="round"/></g>
      <text x="1300" y="150" text-anchor="middle" font-family="Geist, Helvetica Neue, Arial, sans-serif" font-size="23" font-weight="700" fill="#464B54" letter-spacing="0">Ceník</text>
    </g>
      <g class="nav-copy">
      <g transform="translate(1563 93) scale(1.4166666666666667)" fill="none" stroke="#464B54" stroke-width="2.25" vector-effect="non-scaling-stroke"><path d="M20 14a4 4 0 0 1-4 4H8l-4 3V6a4 4 0 0 1 4-4h8a4 4 0 0 1 4 4Z" stroke-linejoin="round"/><path d="M8 8h8M8 12h5" stroke-linecap="round"/></g>
      <text x="1580" y="150" text-anchor="middle" font-family="Geist, Helvetica Neue, Arial, sans-serif" font-size="23" font-weight="700" fill="#464B54" letter-spacing="0">Poptávka</text>
    </g>
</svg>
